<svg xmlns="http://www.w3.org/2000/svg" viewBox="0 0 390 600" preserveAspectRatio="xMidYMin slice">
  <defs>
    <!-- FILTROS PICTÓRICOS -->
    
    <!-- Efeito de pincelada -->
    <filter id="brushStroke" x="-20%" y="-20%" width="140%" height="140%">
      <feTurbulence type="fractalNoise" baseFrequency="0.02" numOctaves="4" seed="7" result="noise"/>
      <feDisplacementMap in="SourceGraphic" in2="noise" scale="8" xChannelSelector="R" yChannelSelector="G"/>
      <feGaussianBlur stdDeviation="0.8"/>
    </filter>
    
    <!-- Efeito óleo suave -->
    <filter id="oilSoft" x="-10%" y="-10%" width="120%" height="120%">
      <feTurbulence type="turbulence" baseFrequency="0.03" numOctaves="2" seed="12" result="turb"/>
      <feDisplacementMap in="SourceGraphic" in2="turb" scale="6"/>
      <feGaussianBlur stdDeviation="1.2"/>
    </filter>
    
    <!-- Grain pictórico -->
    <filter id="grain" x="0%" y="0%" width="100%" height="100%">
      <feTurbulence type="fractalNoise" baseFrequency="0.8" numOctaves="4" seed="5" stitchTiles="stitch" result="noise"/>
      <feColorMatrix in="noise" type="matrix" values="1 0 0 0 0  0 1 0 0 0  0 0 1 0 0  0 0 0 0.12 0"/>
    </filter>
    
    <!-- Textura de tela -->
    <filter id="canvas" x="0%" y="0%" width="100%" height="100%">
      <feTurbulence type="turbulence" baseFrequency="0.05" numOctaves="3" seed="20" result="texture"/>
      <feDiffuseLighting in="texture" lighting-color="#5C3D2E" surfaceScale="2" result="light">
        <feDistantLight azimuth="135" elevation="50"/>
      </feDiffuseLighting>
      <feBlend in="SourceGraphic" in2="light" mode="multiply"/>
    </filter>
    
    <!-- Glow suave para o sol -->
    <filter id="sunGlow" x="-100%" y="-100%" width="300%" height="300%">
      <feGaussianBlur in="SourceGraphic" stdDeviation="15" result="blur"/>
      <feMerge>
        <feMergeNode in="blur"/>
        <feMergeNode in="SourceGraphic"/>
      </feMerge>
    </filter>
    
    <!-- GRADIENTES -->
    
    <!-- Fundo base quente -->
    <linearGradient id="bgWarm" x1="0%" y1="0%" x2="0%" y2="100%">
      <stop offset="0%" stop-color="#5C3D2E"/>
      <stop offset="25%" stop-color="#6B2A1F"/>
      <stop offset="50%" stop-color="#8B3A2F"/>
      <stop offset="75%" stop-color="#6B2A1F"/>
      <stop offset="100%" stop-color="#3D261D"/>
    </linearGradient>
    
    <!-- Halo do sol -->
    <radialGradient id="sunHalo" cx="50%" cy="50%" r="50%">
      <stop offset="0%" stop-color="#E8B84A" stop-opacity="0.6"/>
      <stop offset="40%" stop-color="#D4A03A" stop-opacity="0.3"/>
      <stop offset="70%" stop-color="#D4A03A" stop-opacity="0.1"/>
      <stop offset="100%" stop-color="#D4A03A" stop-opacity="0"/>
    </radialGradient>
    
    <!-- Gradiente interno do sol -->
    <radialGradient id="sunCore" cx="35%" cy="35%" r="60%">
      <stop offset="0%" stop-color="#FDF8F0"/>
      <stop offset="30%" stop-color="#E8B84A"/>
      <stop offset="100%" stop-color="#D4A03A"/>
    </radialGradient>
    
    <!-- Pattern de textura orgânica -->
    <pattern id="organicDots" patternUnits="userSpaceOnUse" width="80" height="80">
      <circle cx="20" cy="20" r="8" fill="#3D261D" opacity="0.06"/>
      <circle cx="60" cy="50" r="12" fill="#6B2A1F" opacity="0.05"/>
      <circle cx="40" cy="70" r="6" fill="#2F4F3A" opacity="0.04"/>
    </pattern>
    
    <!-- Vinheta -->
    <radialGradient id="vignette" cx="50%" cy="40%" r="70%">
      <stop offset="0%" stop-color="#000000" stop-opacity="0"/>
      <stop offset="100%" stop-color="#1F1510" stop-opacity="0.5"/>
    </radialGradient>
  </defs>
  
  <!-- ========== CAMADA 1: Base ========== -->
  <rect width="100%" height="100%" fill="url(#bgWarm)"/>
  <rect width="100%" height="100%" fill="url(#organicDots)"/>
  
  <!-- ========== CAMADA 2: Manchas de atmosfera (óleo) ========== -->
  <g filter="url(#oilSoft)">
    <!-- Mancha quente superior -->
    <ellipse cx="195" cy="80" rx="280" ry="150" fill="#A85A4F" opacity="0.4"/>
    <ellipse cx="100" cy="120" rx="180" ry="100" fill="#8B3A2F" opacity="0.3"/>
    <ellipse cx="300" cy="100" rx="150" ry="90" fill="#C4784A" opacity="0.25"/>
    
    <!-- Mancha inferior escura -->
    <ellipse cx="195" cy="500" rx="300" ry="180" fill="#3D261D" opacity="0.5"/>
    <ellipse cx="80" cy="450" rx="200" ry="120" fill="#2F4F3A" opacity="0.2"/>
  </g>
  
  <!-- ========== CAMADA 3: Formas abstratas (Tarsila style) ========== -->
  <g filter="url(#brushStroke)" opacity="0.15">
    <!-- Formas geométricas orgânicas - lado esquerdo -->
    <ellipse cx="30" cy="200" rx="60" ry="100" fill="#1E3A4C" transform="rotate(-15 30 200)"/>
    <ellipse cx="50" cy="350" rx="45" ry="80" fill="#2F4F3A" transform="rotate(10 50 350)"/>
    
    <!-- Formas geométricas orgânicas - lado direito -->
    <ellipse cx="360" cy="250" rx="55" ry="90" fill="#1F3528" transform="rotate(20 360 250)"/>
    <ellipse cx="370" cy="400" rx="50" ry="70" fill="#1E3A4C" transform="rotate(-10 370 400)"/>
    
    <!-- Formas flutuantes abstratas -->
    <circle cx="80" cy="480" r="35" fill="#6B2A1F"/>
    <circle cx="320" cy="520" r="40" fill="#5C3D2E"/>
  </g>
  
  <!-- ========== CAMADA 4: Sol Abstrato-Pictórico (protagonista) ========== -->
  
  <!-- Halo externo grande -->
  <ellipse cx="195" cy="90" rx="160" ry="130" fill="url(#sunHalo)" filter="url(#sunGlow)"/>
  
  <!-- Raios abstratos (Tarsila style) -->
  <g filter="url(#brushStroke)" opacity="0.2">
    <path d="M195,90 L120,30" stroke="#E8B84A" stroke-width="8" stroke-linecap="round"/>
    <path d="M195,90 L270,25" stroke="#D4A03A" stroke-width="6" stroke-linecap="round"/>
    <path d="M195,90 L80,80" stroke="#E8B84A" stroke-width="5" stroke-linecap="round"/>
    <path d="M195,90 L310,75" stroke="#D4A03A" stroke-width="7" stroke-linecap="round"/>
    <path d="M195,90 L150,20" stroke="#FDF8F0" stroke-width="4" stroke-linecap="round"/>
    <path d="M195,90 L240,15" stroke="#FDF8F0" stroke-width="5" stroke-linecap="round"/>
  </g>
  
  <!-- Sol principal - formas sobrepostas (pictórico) -->
  <g filter="url(#brushStroke)">
    <!-- Camada externa -->
    <ellipse cx="195" cy="90" rx="42" ry="38" fill="#D4A03A" opacity="0.9"/>
    <!-- Camada média - ligeiramente deslocada -->
    <ellipse cx="190" cy="85" rx="35" ry="32" fill="#E8B84A" opacity="0.85"/>
    <!-- Camada interna - luz -->
    <ellipse cx="185" cy="80" rx="25" ry="22" fill="#FDF8F0" opacity="0.5"/>
    <!-- Núcleo brilhante -->
    <circle cx="182" cy="78" r="12" fill="#FDF8F0" opacity="0.7"/>
  </g>
  
  <!-- Reflexo de luz do sol (pequenos brilhos) -->
  <g opacity="0.3">
    <circle cx="210" cy="95" r="4" fill="#FDF8F0"/>
    <circle cx="175" cy="100" r="3" fill="#E8B84A"/>
    <circle cx="200" cy="75" r="2" fill="#FDF8F0"/>
  </g>
  
  <!-- ========== CAMADA 5: Elementos decorativos abstratos ========== -->
  <g filter="url(#brushStroke)" opacity="0.1">
    <!-- Linhas orgânicas flutuantes -->
    <path d="M50,150 Q100,140 150,155 T250,145" stroke="#E8B84A" stroke-width="2" fill="none"/>
    <path d="M250,160 Q300,150 350,165" stroke="#D4A03A" stroke-width="1.5" fill="none"/>
    
    <!-- Pontos decorativos (estrelas abstratas) -->
    <circle cx="60" cy="60" r="3" fill="#F5F0E8"/>
    <circle cx="330" cy="50" r="2.5" fill="#F5F0E8"/>
    <circle cx="100" cy="180" r="2" fill="#E8B84A"/>
    <circle cx="290" cy="170" r="2.5" fill="#E8B84A"/>
    <circle cx="50" cy="300" r="2" fill="#F5F0E8"/>
    <circle cx="340" cy="320" r="2" fill="#F5F0E8"/>
  </g>
  
  <!-- ========== CAMADA 6: Ondas de calor (atmosfera) ========== -->
  <g filter="url(#oilSoft)" opacity="0.08">
    <path d="M0,200 Q100,180 200,200 T400,190" stroke="#D4A03A" stroke-width="40" fill="none"/>
    <path d="M0,280 Q100,260 200,280 T400,270" stroke="#E8B84A" stroke-width="30" fill="none"/>
  </g>
  
  <!-- ========== CAMADA 7: Grain e textura ========== -->
  <rect width="100%" height="100%" filter="url(#grain)"/>
  
  <!-- ========== CAMADA 8: Vinheta final ========== -->
  <rect width="100%" height="100%" fill="url(#vignette)"/>
</svg>
