<svg xmlns="http://www.w3.org/2000/svg" viewBox="0 0 800 1200" preserveAspectRatio="xMidYMid slice">
  <defs>
    <!-- Night canvas texture -->
    <filter id="nightCanvas" x="0%" y="0%" width="100%" height="100%">
      <feTurbulence type="turbulence" baseFrequency="0.035" numOctaves="5" seed="21" result="noise"/>
      <feDiffuseLighting in="noise" lighting-color="#1E3A4C" surfaceScale="3" result="light">
        <feDistantLight azimuth="220" elevation="40"/>
      </feDiffuseLighting>
      <feBlend in="SourceGraphic" in2="light" mode="multiply"/>
    </filter>

    <!-- Brush stroke texture -->
    <filter id="nightBrush" x="-20%" y="-20%" width="140%" height="140%">
      <feTurbulence type="fractalNoise" baseFrequency="0.02" numOctaves="5" seed="7" result="noise"/>
      <feDisplacementMap in="SourceGraphic" in2="noise" scale="16" xChannelSelector="R" yChannelSelector="G"/>
      <feGaussianBlur stdDeviation="0.6"/>
    </filter>

    <!-- Night grain -->
    <filter id="nightGrain" x="0%" y="0%" width="100%" height="100%">
      <feTurbulence type="fractalNoise" baseFrequency="0.65" numOctaves="4" seed="12" stitchTiles="stitch" result="grain"/>
      <feColorMatrix in="grain" type="matrix" values="1 0 0 0 0  0 1 0 0 0  0 0 1 0 0  0 0 0 0.12 0"/>
    </filter>

    <!-- Moon glow -->
    <radialGradient id="moonGlow" cx="50%" cy="50%" r="60%">
      <stop offset="0%" style="stop-color:#F5F0E8;stop-opacity:0.35"/>
      <stop offset="100%" style="stop-color:#F5F0E8;stop-opacity:0"/>
    </radialGradient>

    <!-- Lantern glow -->
    <radialGradient id="lanternGlow" cx="50%" cy="50%" r="60%">
      <stop offset="0%" style="stop-color:#D4A03A;stop-opacity:0.25"/>
      <stop offset="100%" style="stop-color:#D4A03A;stop-opacity:0"/>
    </radialGradient>

    <!-- Night vignette -->
    <radialGradient id="nightVignette" cx="50%" cy="45%" r="70%">
      <stop offset="0%" style="stop-color:#000000;stop-opacity:0"/>
      <stop offset="100%" style="stop-color:#0F2535;stop-opacity:0.6"/>
    </radialGradient>
  </defs>

  <!-- Base night -->
  <rect width="100%" height="100%" fill="#0F2535"/>

  <!-- Pictorial layers -->
  <g filter="url(#nightBrush)">
    <ellipse cx="400" cy="120" rx="520" ry="260" fill="#1E3A4C" opacity="0.9"/>
    <ellipse cx="620" cy="320" rx="420" ry="220" fill="#2F4F3A" opacity="0.55"/>
    <ellipse cx="220" cy="420" rx="380" ry="200" fill="#1F3528" opacity="0.6"/>
    <ellipse cx="420" cy="650" rx="520" ry="260" fill="#3D261D" opacity="0.45"/>
    <ellipse cx="220" cy="900" rx="420" ry="260" fill="#1E3A4C" opacity="0.4"/>
    <ellipse cx="620" cy="980" rx="380" ry="240" fill="#2F4F3A" opacity="0.45"/>
  </g>

  <!-- Moon and glow -->
  <circle cx="620" cy="240" r="55" fill="#F5F0E8" opacity="0.5"/>
  <circle cx="620" cy="240" r="110" fill="url(#moonGlow)"/>

  <!-- Diffused lantern lights -->
  <circle cx="240" cy="520" r="80" fill="url(#lanternGlow)"/>
  <circle cx="520" cy="760" r="70" fill="url(#lanternGlow)"/>

  <!-- Soft skyline silhouettes -->
  <g filter="url(#nightBrush)" opacity="0.7">
    <path d="M0,780 Q120,740 240,760 Q360,730 480,760 Q600,720 720,750 Q760,760 800,770 L800,900 L0,900 Z" fill="#1F3528"/>
    <path d="M0,860 Q160,820 320,840 Q480,810 640,840 Q720,860 800,870 L800,980 L0,980 Z" fill="#0F2535"/>
  </g>

  <!-- Canvas texture and grain -->
  <rect width="100%" height="100%" filter="url(#nightCanvas)" opacity="0.6"/>
  <rect width="100%" height="100%" filter="url(#nightGrain)"/>

  <!-- Vignette -->
  <rect width="100%" height="100%" fill="url(#nightVignette)"/>
</svg>
